<svg xmlns="http://www.w3.org/2000/svg" width="306.81" height="35" viewBox="0 0 306.81 35"><rect class="svg__rect" x="0" y="0" width="170.63" height="35" fill="#FF2020"/><rect class="svg__rect" x="168.63" y="0" width="138.18" height="35" fill="#D91C1C"/><path class="svg__text" d="M15.70 22L14.22 22L14.22 13.47L15.70 13.47L15.70 17.02L19.51 17.02L19.51 13.47L20.99 13.47L20.99 22L19.51 22L19.51 18.21L15.70 18.21L15.70 22ZM31.31 22L25.73 22L25.73 13.47L31.27 13.47L31.27 14.66L27.21 14.66L27.21 17.02L30.72 17.02L30.72 18.19L27.21 18.19L27.21 20.82L31.31 20.82L31.31 22ZM35.23 18.19L35.23 18.19L35.23 17.39Q35.23 16.19 35.66 15.27Q36.09 14.35 36.89 13.85Q37.69 13.35 38.74 13.35L38.74 13.35Q40.15 13.35 41.01 14.12Q41.87 14.89 42.01 16.29L42.01 16.29L40.54 16.29Q40.43 15.37 40.00 14.96Q39.57 14.55 38.74 14.55L38.74 14.55Q37.77 14.55 37.25 15.26Q36.73 15.96 36.72 17.33L36.72 17.33L36.72 18.09Q36.72 19.47 37.22 20.20Q37.71 20.92 38.67 20.92L38.67 20.92Q39.54 20.92 39.98 20.53Q40.42 20.14 40.54 19.22L40.54 19.22L42.01 19.22Q41.89 20.59 41.01 21.35Q40.13 22.12 38.67 22.12L38.67 22.12Q37.65 22.12 36.87 21.63Q36.10 21.15 35.67 20.26Q35.25 19.37 35.23 18.19ZM47.81 22L46.33 22L46.33 13.47L47.81 13.47L47.81 17.02L51.62 17.02L51.62 13.47L53.10 13.47L53.10 22L51.62 22L51.62 18.21L47.81 18.21L47.81 22ZM57.57 18.00L57.57 18.00L57.57 17.52Q57.57 16.28 58.01 15.32Q58.46 14.37 59.26 13.86Q60.07 13.35 61.11 13.35Q62.15 13.35 62.96 13.85Q63.76 14.35 64.20 15.29Q64.64 16.23 64.65 17.48L64.65 17.48L64.65 17.96Q64.65 19.21 64.22 20.16Q63.78 21.10 62.98 21.61Q62.17 22.12 61.12 22.12L61.12 22.12Q60.08 22.12 59.27 21.61Q58.46 21.10 58.02 20.17Q57.58 19.23 57.57 18.00ZM59.05 17.46L59.05 17.96Q59.05 19.36 59.60 20.13Q60.15 20.90 61.12 20.90L61.12 20.90Q62.11 20.90 62.64 20.15Q63.17 19.40 63.17 17.96L63.17 17.96L63.17 17.51Q63.17 16.09 62.63 15.34Q62.09 14.58 61.11 14.58L61.11 14.58Q60.15 14.58 59.61 15.33Q59.06 16.09 59.05 17.46L59.05 17.46ZM74.82 18.19L74.82 18.19L74.82 17.39Q74.82 16.19 75.25 15.27Q75.68 14.35 76.48 13.85Q77.28 13.35 78.32 13.35L78.32 13.35Q79.74 13.35 80.60 14.12Q81.46 14.89 81.60 16.29L81.60 16.29L80.12 16.29Q80.02 15.37 79.59 14.96Q79.16 14.55 78.32 14.55L78.32 14.55Q77.36 14.55 76.84 15.26Q76.32 15.96 76.31 17.33L76.31 17.33L76.31 18.09Q76.31 19.47 76.80 20.20Q77.30 20.92 78.25 20.92L78.25 20.92Q79.13 20.92 79.57 20.53Q80.01 20.14 80.12 19.22L80.12 19.22L81.60 19.22Q81.47 20.59 80.59 21.35Q79.71 22.12 78.25 22.12L78.25 22.12Q77.23 22.12 76.46 21.63Q75.68 21.15 75.26 20.26Q74.84 19.37 74.82 18.19ZM85.64 18.00L85.64 18.00L85.64 17.52Q85.64 16.28 86.09 15.32Q86.53 14.37 87.33 13.86Q88.14 13.35 89.18 13.35Q90.22 13.35 91.03 13.85Q91.84 14.35 92.28 15.29Q92.72 16.23 92.72 17.48L92.72 17.48L92.72 17.96Q92.72 19.21 92.29 20.16Q91.85 21.10 91.05 21.61Q90.24 22.12 89.19 22.12L89.19 22.12Q88.16 22.12 87.35 21.61Q86.53 21.10 86.09 20.17Q85.65 19.23 85.64 18.00ZM87.13 17.46L87.13 17.96Q87.13 19.36 87.67 20.13Q88.22 20.90 89.19 20.90L89.19 20.90Q90.18 20.90 90.71 20.15Q91.24 19.40 91.24 17.96L91.24 17.96L91.24 17.51Q91.24 16.09 90.70 15.34Q90.17 14.58 89.18 14.58L89.18 14.58Q88.22 14.58 87.68 15.33Q87.14 16.09 87.13 17.46L87.13 17.46ZM98.67 22L97.19 22L97.19 13.47L98.67 13.47L102.48 19.54L102.48 13.47L103.95 13.47L103.95 22L102.47 22L98.67 15.95L98.67 22ZM115.45 22L113.91 22L117.13 13.47L118.46 13.47L121.69 22L120.14 22L119.45 20.01L116.14 20.01L115.45 22ZM117.79 15.28L116.56 18.82L119.03 18.82L117.79 15.28ZM127.12 22L125.64 22L125.64 13.47L127.57 13.47L130.03 20.01L132.48 13.47L134.40 13.47L134.40 22L132.92 22L132.92 19.19L133.07 15.43L130.55 22L129.49 22L126.97 15.43L127.12 19.19L127.12 22ZM138.87 18.00L138.87 18.00L138.87 17.52Q138.87 16.28 139.31 15.32Q139.75 14.37 140.56 13.86Q141.37 13.35 142.41 13.35Q143.45 13.35 144.26 13.85Q145.06 14.35 145.50 15.29Q145.94 16.23 145.95 17.48L145.95 17.48L145.95 17.96Q145.95 19.21 145.51 20.16Q145.08 21.10 144.27 21.61Q143.47 22.12 142.42 22.12L142.42 22.12Q141.38 22.12 140.57 21.61Q139.76 21.10 139.32 20.17Q138.88 19.23 138.87 18.00ZM140.35 17.46L140.35 17.96Q140.35 19.36 140.90 20.13Q141.45 20.90 142.42 20.90L142.42 20.90Q143.40 20.90 143.93 20.15Q144.47 19.40 144.47 17.96L144.47 17.96L144.47 17.51Q144.47 16.09 143.93 15.34Q143.39 14.58 142.41 14.58L142.41 14.58Q141.45 14.58 140.91 15.33Q140.36 16.09 140.35 17.46L140.35 17.46ZM151.89 22L150.41 22L150.41 13.47L153.41 13.47Q154.89 13.47 155.69 14.13Q156.49 14.79 156.49 16.05L156.49 16.05Q156.49 16.90 156.08 17.48Q155.67 18.06 154.93 18.37L154.93 18.37L156.85 21.92L156.85 22L155.26 22L153.55 18.71L151.89 18.71L151.89 22ZM151.89 14.66L151.89 17.52L153.42 17.52Q154.17 17.52 154.59 17.15Q155.01 16.77 155.01 16.11L155.01 16.11Q155.01 15.43 154.62 15.05Q154.23 14.68 153.46 14.66L153.46 14.66L151.89 14.66Z" fill="#FFFFFF"/><path class="svg__text" d="M186.79 22L182.82 22L182.82 13.60L186.79 13.60Q188.17 13.60 189.24 14.12Q190.31 14.63 190.90 15.58Q191.48 16.53 191.48 17.80L191.48 17.80Q191.48 19.07 190.90 20.02Q190.31 20.97 189.24 21.48Q188.17 22 186.79 22L186.79 22ZM185.20 15.50L185.20 20.10L186.70 20.10Q187.77 20.10 188.43 19.49Q189.08 18.88 189.08 17.80L189.08 17.80Q189.08 16.72 188.43 16.11Q187.77 15.50 186.70 15.50L186.70 15.50L185.20 15.50ZM202.96 22L196.21 22L196.21 13.60L202.80 13.60L202.80 15.44L198.57 15.44L198.57 16.85L202.30 16.85L202.30 18.63L198.57 18.63L198.57 20.17L202.96 20.17L202.96 22ZM207.18 21.24L207.18 21.24L207.95 19.49Q208.52 19.86 209.26 20.09Q210.01 20.32 210.73 20.32L210.73 20.32Q212.09 20.32 212.10 19.64L212.10 19.64Q212.10 19.28 211.71 19.11Q211.32 18.93 210.45 18.74L210.45 18.74Q209.50 18.53 208.87 18.30Q208.23 18.06 207.78 17.55Q207.32 17.03 207.32 16.16L207.32 16.16Q207.32 15.39 207.74 14.77Q208.16 14.15 208.99 13.79Q209.83 13.43 211.04 13.43L211.04 13.43Q211.86 13.43 212.67 13.62Q213.47 13.80 214.09 14.17L214.09 14.17L213.36 15.93Q212.16 15.28 211.02 15.28L211.02 15.28Q210.32 15.28 209.99 15.49Q209.67 15.70 209.67 16.04L209.67 16.04Q209.67 16.37 210.06 16.54Q210.44 16.71 211.29 16.89L211.29 16.89Q212.25 17.10 212.88 17.33Q213.51 17.56 213.97 18.07Q214.44 18.58 214.44 19.46L214.44 19.46Q214.44 20.21 214.02 20.83Q213.60 21.44 212.76 21.80Q211.92 22.17 210.71 22.17L210.71 22.17Q209.69 22.17 208.73 21.92Q207.77 21.67 207.18 21.24ZM222.98 22L219.01 22L219.01 13.60L222.98 13.60Q224.37 13.60 225.43 14.12Q226.50 14.63 227.09 15.58Q227.68 16.53 227.68 17.80L227.68 17.80Q227.68 19.07 227.09 20.02Q226.50 20.97 225.43 21.48Q224.37 22 222.98 22L222.98 22ZM221.39 15.50L221.39 20.10L222.89 20.10Q223.97 20.10 224.62 19.49Q225.27 18.88 225.27 17.80L225.27 17.80Q225.27 16.72 224.62 16.11Q223.97 15.50 222.89 15.50L222.89 15.50L221.39 15.50ZM239.15 22L232.41 22L232.41 13.60L239.00 13.60L239.00 15.44L234.76 15.44L234.76 16.85L238.49 16.85L238.49 18.63L234.76 18.63L234.76 20.17L239.15 20.17L239.15 22ZM253.31 22L250.93 22L250.93 13.60L254.77 13.60Q255.91 13.60 256.75 13.98Q257.59 14.35 258.05 15.06Q258.50 15.76 258.50 16.71L258.50 16.71Q258.50 17.66 258.05 18.35Q257.59 19.05 256.75 19.42Q255.91 19.80 254.77 19.80L254.77 19.80L253.31 19.80L253.31 22ZM253.31 15.47L253.31 17.93L254.62 17.93Q255.36 17.93 255.73 17.61Q256.10 17.29 256.10 16.71L256.10 16.71Q256.10 16.12 255.73 15.80Q255.36 15.47 254.62 15.47L254.62 15.47L253.31 15.47ZM270.00 22L263.26 22L263.26 13.60L269.85 13.60L269.85 15.44L265.61 15.44L265.61 16.85L269.34 16.85L269.34 18.63L265.61 18.63L265.61 20.17L270.00 20.17L270.00 22ZM277.18 22L274.80 22L274.80 13.60L278.65 13.60Q279.79 13.60 280.63 13.98Q281.47 14.35 281.92 15.06Q282.38 15.76 282.38 16.71L282.38 16.71Q282.38 17.62 281.95 18.30Q281.52 18.98 280.73 19.36L280.73 19.36L282.54 22L280.00 22L278.48 19.77L277.18 19.77L277.18 22ZM277.18 15.47L277.18 17.93L278.50 17.93Q279.23 17.93 279.61 17.61Q279.98 17.29 279.98 16.71L279.98 16.71Q279.98 16.12 279.61 15.79Q279.23 15.47 278.50 15.47L278.50 15.47L277.18 15.47ZM287.10 18.26L287.10 18.26L287.10 13.60L289.48 13.60L289.48 18.19Q289.48 20.20 291.07 20.20L291.07 20.20Q292.65 20.20 292.65 18.19L292.65 18.19L292.65 13.60L295.00 13.60L295.00 18.26Q295.00 20.13 293.96 21.15Q292.92 22.17 291.05 22.17L291.05 22.17Q289.17 22.17 288.13 21.15Q287.10 20.13 287.10 18.26ZM291.52 12.92L289.89 12.92L291.50 11.09L293.78 11.09L291.52 12.92Z" fill="#FFFFFF" x="181.63"/></svg>